<svg version="1.1" id="Layer_1" xmlns="http://www.w3.org/2000/svg" xmlns:xlink="http://www.w3.org/1999/xlink" x="0px" y="0px"
	 width="100%" viewBox="0 0 500 500" enable-background="new 0 0 500 500" xml:space="preserve">
<path fill="#000000" opacity="1.000000" stroke="none" 
	d="
M268.000000,501.000000 
	C178.666687,501.000000 89.833374,501.000000 1.000048,501.000000 
	C1.000032,334.333405 1.000032,167.666794 1.000016,1.000137 
	C167.666565,1.000091 334.333130,1.000091 500.999756,1.000046 
	C500.999847,167.666519 500.999847,334.333038 500.999939,500.999786 
	C423.500000,501.000000 346.000000,501.000000 268.000000,501.000000 
M358.038940,125.635033 
	C358.241791,125.879204 358.488159,126.065910 358.824188,126.651978 
	C359.255127,126.963455 359.686035,127.274933 360.117004,127.586403 
	C359.825989,126.960938 359.535004,126.335472 358.940247,125.373581 
	C358.732025,125.153839 358.511688,124.947037 358.094543,124.739136 
	C358.094543,124.739136 357.778931,124.900421 357.778931,124.900421 
	C357.778931,124.900421 357.772797,125.251442 358.038940,125.635033 
M362.700470,124.900749 
	C362.700470,124.900749 362.851257,125.248344 362.851257,125.248344 
	C362.851257,125.248344 363.221954,125.222763 363.636963,124.975235 
	C363.899780,124.772476 364.086548,124.514626 364.505493,124.160385 
	C364.520203,123.915352 364.534912,123.670311 364.549591,123.425293 
	C364.273254,123.536217 363.996918,123.647141 363.364746,124.043503 
	C363.135742,124.245087 362.926483,124.465408 362.700470,124.900749 
M371.025604,123.746681 
	C371.025604,123.746681 370.759491,123.837769 370.759491,123.837769 
	C370.759491,123.837769 370.810242,124.098518 370.849945,124.529274 
	C371.167908,124.894325 371.485840,125.259384 371.803802,125.624435 
	C371.975861,125.472733 372.147949,125.321030 372.320038,125.169327 
	C371.937805,124.713326 371.555542,124.257317 371.025604,123.746681 
M386.765808,120.069046 
	C387.016418,119.589088 387.266998,119.109123 387.517578,118.629166 
	C386.913483,118.983910 386.309357,119.338646 385.478729,119.921066 
	C385.399139,120.205566 385.319580,120.490067 385.240021,120.774582 
	C385.595245,120.577972 385.950439,120.381363 386.765808,120.069046 
M394.150574,168.565384 
	C393.945679,168.533340 393.740753,168.501297 393.535858,168.469254 
	C393.635925,168.679520 393.735992,168.889786 393.890106,169.604233 
	C394.257263,170.048798 394.609528,170.508347 395.016785,170.912491 
	C395.053650,170.949097 395.444397,170.629150 395.670807,170.474808 
	C395.201843,169.914276 394.732880,169.353745 394.150574,168.565384 
M376.721313,114.581299 
	C377.058228,114.783577 377.395142,114.985855 377.732086,115.188133 
	C377.577332,114.704445 377.422607,114.220749 376.897064,113.342331 
	C376.112762,113.073082 375.328491,112.803833 374.544189,112.534584 
	C374.435181,112.814285 374.326141,113.093987 374.217102,113.373680 
	C375.025146,113.636147 375.833160,113.898605 376.721313,114.581299 
M377.242645,128.952316 
	C376.856201,128.545135 376.469788,128.137939 376.083344,127.730759 
	C375.819580,128.046951 375.555786,128.363159 375.292023,128.679352 
	C375.833527,128.865448 376.375061,129.051559 377.242645,128.952316 
M369.725006,392.721191 
	C369.937836,392.675140 370.150696,392.629089 370.363556,392.583008 
	C370.313690,392.468109 370.263824,392.353210 370.213928,392.238312 
	C370.018707,392.329742 369.823517,392.421173 369.725006,392.721191 
M364.744263,386.322845 
	C364.897491,386.473785 365.050720,386.624756 365.203949,386.775726 
	C365.107239,386.589233 365.010559,386.402740 364.744263,386.322845 
M408.948608,179.496307 
	C409.069336,179.358170 409.190063,179.220047 409.310791,179.081894 
	C409.145294,179.173447 408.979797,179.264999 408.948608,179.496307 
M263.709991,427.141418 
	C263.848480,427.176270 263.986969,427.211090 264.125427,427.245972 
	C264.030823,427.175568 263.936188,427.105194 263.709991,427.141418 
M269.353821,424.400513 
	C269.414459,424.378967 269.475128,424.357422 269.353821,424.400513 
M357.577332,377.552551 
	C357.577332,377.552551 357.462860,377.307159 357.462860,377.307159 
	C357.462860,377.307159 357.474304,377.581787 357.577332,377.552551 
M412.630432,178.426407 
	C412.630432,178.426407 412.438477,178.387329 412.438477,178.387329 
	C412.438477,178.387329 412.600464,178.501587 412.630432,178.426407 
M361.627899,383.070465 
	C361.627899,383.070465 361.464600,382.846710 361.464600,382.846710 
	C361.464600,382.846710 361.486542,383.130707 361.627899,383.070465 
M370.901611,117.367424 
	C370.901611,117.367424 370.986328,117.683662 370.986328,117.683662 
	C370.986328,117.683662 371.087341,117.373772 370.901611,117.367424 
M375.500092,396.960724 
	C375.500092,396.960724 375.541870,396.997925 375.500092,396.960724 
M366.780457,121.516701 
	C366.915009,121.508232 367.049591,121.499763 367.184143,121.491310 
	C367.093079,121.445023 367.002014,121.398735 366.780457,121.516701 
M355.429718,390.965179 
	C355.429718,390.965179 355.543518,391.130951 355.543518,391.130951 
	C355.543518,391.130951 355.534027,390.926849 355.429718,390.965179 
M367.595490,390.046753 
	C367.595490,390.046753 367.472198,389.870880 367.472198,389.870880 
	C367.472198,389.870880 367.484528,390.089905 367.595490,390.046753 
M359.577362,379.944794 
	C359.577362,379.944794 359.572998,380.026489 359.577362,379.944794 
M399.433319,168.975098 
	C399.433319,168.975098 399.520233,168.944366 399.433319,168.975098 
M373.458221,396.506927 
	C373.458221,396.506927 373.518616,396.481750 373.458221,396.506927 
M410.401306,162.491852 
	C410.401306,162.491852 410.537170,162.411087 410.401306,162.491852 
z"/>
<path fill="#101010" opacity="1.000000" stroke="none" 
	d="
M377.079590,129.095001 
	C376.375061,129.051559 375.833527,128.865448 375.292023,128.679352 
	C375.555786,128.363159 375.819580,128.046951 376.083344,127.730759 
	C376.469788,128.137939 376.856201,128.545135 377.079590,129.095001 
z"/>
<path fill="#101010" opacity="1.000000" stroke="none" 
	d="
M376.641205,114.161072 
	C375.833160,113.898605 375.025146,113.636147 374.217102,113.373680 
	C374.326141,113.093987 374.435181,112.814285 374.544189,112.534584 
	C375.328491,112.803833 376.112762,113.073082 376.926147,113.646194 
	C376.955200,113.950050 376.641205,114.161072 376.641205,114.161072 
z"/>
<path fill="#0D0D0D" opacity="1.000000" stroke="none" 
	d="
M394.263916,168.793213 
	C394.732880,169.353745 395.201843,169.914276 395.670807,170.474792 
	C395.444397,170.629150 395.053650,170.949097 395.016785,170.912491 
	C394.609528,170.508347 394.257263,170.048798 393.970337,169.275803 
	C394.050537,168.947372 394.263916,168.793198 394.263916,168.793213 
z"/>
<path fill="#101010" opacity="1.000000" stroke="none" 
	d="
M385.705231,119.693390 
	C386.309357,119.338646 386.913483,118.983910 387.517578,118.629166 
	C387.266998,119.109123 387.016418,119.589088 386.385071,120.004745 
	C386.004303,119.940453 385.705231,119.693382 385.705231,119.693390 
z"/>
<path fill="#101010" opacity="1.000000" stroke="none" 
	d="
M386.154968,120.062607 
	C385.950439,120.381363 385.595245,120.577972 385.240021,120.774582 
	C385.319580,120.490067 385.399139,120.205566 385.591980,119.807220 
	C385.705231,119.693382 386.004303,119.940453 386.154968,120.062607 
z"/>
<path fill="#0E0E0E" opacity="1.000000" stroke="none" 
	d="
M369.676636,392.616882 
	C369.823517,392.421173 370.018707,392.329742 370.213928,392.238312 
	C370.263824,392.353210 370.313690,392.468109 370.363525,392.583008 
	C370.150696,392.629089 369.937836,392.675140 369.676636,392.616882 
z"/>
<path fill="#0E0E0E" opacity="1.000000" stroke="none" 
	d="
M364.829071,386.269531 
	C365.010559,386.402740 365.107239,386.589233 365.203949,386.775726 
	C365.050720,386.624756 364.897491,386.473785 364.829071,386.269531 
z"/>
<path fill="#101010" opacity="1.000000" stroke="none" 
	d="
M408.881470,179.426422 
	C408.979797,179.264999 409.145294,179.173447 409.310791,179.081909 
	C409.190063,179.220047 409.069336,179.358170 408.881470,179.426422 
z"/>
<path fill="#101010" opacity="1.000000" stroke="none" 
	d="
M371.173309,123.801315 
	C371.555542,124.257317 371.937805,124.713326 372.320038,125.169327 
	C372.147949,125.321030 371.975861,125.472733 371.803802,125.624435 
	C371.485840,125.259384 371.167908,124.894325 370.920959,124.239723 
	C370.991974,123.950172 371.173309,123.801315 371.173309,123.801315 
z"/>
<path fill="#101010" opacity="1.000000" stroke="none" 
	d="
M359.244019,125.710007 
	C359.535004,126.335472 359.825989,126.960938 360.117004,127.586411 
	C359.686035,127.274933 359.255127,126.963455 358.917236,126.301895 
	C359.010254,125.951813 359.243988,125.710014 359.244019,125.710007 
z"/>
<path fill="#0E0E0E" opacity="1.000000" stroke="none" 
	d="
M263.775787,427.088104 
	C263.936188,427.105194 264.030823,427.175568 264.125427,427.245972 
	C263.986969,427.211090 263.848480,427.176270 263.775787,427.088104 
z"/>
<path fill="#0E0E0E" opacity="1.000000" stroke="none" 
	d="
M269.444794,424.368195 
	C269.475128,424.357422 269.414459,424.378967 269.444794,424.368195 
z"/>
<path fill="#0E0E0E" opacity="1.000000" stroke="none" 
	d="
M357.525818,377.567169 
	C357.474304,377.581787 357.462860,377.307159 357.462860,377.307159 
	C357.462860,377.307159 357.577332,377.552551 357.525818,377.567169 
z"/>
<path fill="#101010" opacity="1.000000" stroke="none" 
	d="
M412.615448,178.463989 
	C412.600464,178.501587 412.438477,178.387329 412.438477,178.387329 
	C412.438477,178.387329 412.630432,178.426407 412.615448,178.463989 
z"/>
<path fill="#101010" opacity="1.000000" stroke="none" 
	d="
M377.111542,113.843552 
	C377.422607,114.220749 377.577332,114.704445 377.732056,115.188141 
	C377.395142,114.985855 377.058228,114.783577 376.681274,114.371185 
	C376.641205,114.161072 376.955200,113.950050 377.111542,113.843552 
z"/>
<path fill="#0E0E0E" opacity="1.000000" stroke="none" 
	d="
M361.557220,383.100586 
	C361.486542,383.130707 361.464600,382.846710 361.464600,382.846710 
	C361.464600,382.846710 361.627899,383.070465 361.557220,383.100586 
z"/>
<path fill="#101010" opacity="1.000000" stroke="none" 
	d="
M370.994476,117.370598 
	C371.087341,117.373772 370.986328,117.683662 370.986328,117.683662 
	C370.986328,117.683662 370.901611,117.367424 370.994476,117.370598 
z"/>
<path fill="#0E0E0E" opacity="1.000000" stroke="none" 
	d="
M375.520996,396.979309 
	C375.541870,396.997925 375.500092,396.960724 375.520996,396.979309 
z"/>
<path fill="#101010" opacity="1.000000" stroke="none" 
	d="
M366.845703,121.434570 
	C367.002014,121.398735 367.093079,121.445023 367.184143,121.491302 
	C367.049591,121.499763 366.915009,121.508232 366.845703,121.434570 
z"/>
<path fill="#050505" opacity="1.000000" stroke="none" 
	d="
M355.481873,390.946014 
	C355.534027,390.926849 355.543518,391.130951 355.543518,391.130951 
	C355.543518,391.130951 355.429718,390.965179 355.481873,390.946014 
z"/>
<path fill="#0E0E0E" opacity="1.000000" stroke="none" 
	d="
M367.540009,390.068329 
	C367.484528,390.089905 367.472198,389.870880 367.472198,389.870880 
	C367.472198,389.870880 367.595490,390.046753 367.540009,390.068329 
z"/>
<path fill="#101010" opacity="1.000000" stroke="none" 
	d="
M363.720551,123.758064 
	C363.996918,123.647141 364.273254,123.536217 364.549591,123.425285 
	C364.534912,123.670311 364.520203,123.915352 364.231689,124.070663 
	C363.957916,123.980934 363.720551,123.758057 363.720551,123.758064 
z"/>
<path fill="#0E0E0E" opacity="1.000000" stroke="none" 
	d="
M359.575195,379.985657 
	C359.572998,380.026489 359.577362,379.944794 359.575195,379.985657 
z"/>
<path fill="#0D0D0D" opacity="1.000000" stroke="none" 
	d="
M399.476776,168.959732 
	C399.520233,168.944366 399.433319,168.975098 399.476776,168.959732 
z"/>
<path fill="#0D0D0D" opacity="1.000000" stroke="none" 
	d="
M393.943298,169.023712 
	C393.735992,168.889786 393.635925,168.679520 393.535858,168.469254 
	C393.740753,168.501297 393.945679,168.533340 394.207245,168.679291 
	C394.263916,168.793198 394.050537,168.947372 393.943298,169.023712 
z"/>
<path fill="#101010" opacity="1.000000" stroke="none" 
	d="
M363.221954,125.222763 
	C363.221954,125.222763 362.851257,125.248344 362.851257,125.248344 
	C362.851257,125.248344 362.700470,124.900749 362.840973,124.932404 
	C362.981476,124.964058 363.221954,125.222763 363.221954,125.222763 
z"/>
<path fill="#101010" opacity="1.000000" stroke="none" 
	d="
M370.901123,124.024345 
	C370.810242,124.098518 370.759491,123.837769 370.759491,123.837769 
	C370.759491,123.837769 371.025604,123.746681 371.099457,123.774002 
	C371.173309,123.801315 370.991974,123.950172 370.901123,124.024345 
z"/>
<path fill="#101010" opacity="1.000000" stroke="none" 
	d="
M357.772797,125.251442 
	C357.772797,125.251442 357.778931,124.900421 357.778931,124.900421 
	C357.778931,124.900421 358.094543,124.739136 358.059875,124.871643 
	C358.025238,125.004150 357.772797,125.251442 357.772797,125.251442 
z"/>
<path fill="#101010" opacity="1.000000" stroke="none" 
	d="
M364.077576,124.091309 
	C364.086548,124.514626 363.899780,124.772476 363.429443,125.098999 
	C363.221954,125.222763 362.981476,124.964058 362.859222,124.834267 
	C362.926483,124.465408 363.135742,124.245087 363.542664,123.900780 
	C363.720551,123.758057 363.957916,123.980934 364.077576,124.091309 
z"/>
<path fill="#101010" opacity="1.000000" stroke="none" 
	d="
M358.894165,126.073479 
	C358.488159,126.065910 358.241791,125.879204 357.905884,125.443237 
	C357.772797,125.251442 358.025238,125.004150 358.152222,124.878662 
	C358.511688,124.947037 358.732025,125.153839 359.092102,125.541794 
	C359.243988,125.710014 359.010254,125.951813 358.894165,126.073479 
z"/>
<path fill="#0E0E0E" opacity="1.000000" stroke="none" 
	d="
M373.488403,396.494324 
	C373.518616,396.481750 373.458221,396.506927 373.488403,396.494324 
z"/>
<path fill="#0D0D0D" opacity="1.000000" stroke="none" 
	d="
M410.469238,162.451477 
	C410.537170,162.411087 410.401306,162.491852 410.469238,162.451477 
z"/>
</svg>